<?xml version="1.0" encoding="UTF-8"?>
<svg width="57px" height="59px" viewBox="0 0 57 59" version="1.1" xmlns="http://www.w3.org/2000/svg" xmlns:xlink="http://www.w3.org/1999/xlink">
    <!-- Generator: Sketch 51 (57462) - http://www.bohemiancoding.com/sketch -->
    <title>ico_notification</title>
    <desc>Created with Sketch.</desc>
    <defs></defs>
    <g id="Page-1" stroke="none" stroke-width="1" fill="none" fill-rule="evenodd">
        <g id="ico_notification" transform="translate(0.000000, -1.000000)" fill="#FFFFFF" fill-rule="nonzero">
            <path d="M55.8184615,49.9511538 C50.4415385,44.6076923 47.7161538,38.2834615 47.7161538,31.1538462 L47.7161538,20.7761538 C47.7657692,12.8642308 42.4453846,7.61653846 37.8738462,5.52692308 C36.585,4.93846154 35.2269231,4.50230769 33.8423077,4.16769231 L33.8423077,3.46153846 C33.8423077,0.280384615 22.3038462,0.280384615 22.3038462,3.46153846 L22.3038462,4.27615385 C21.0588462,4.60269231 19.8357692,5.00192308 18.6738462,5.53730769 C13.6211538,7.86576923 8.50269231,13.4780769 8.45653846,20.7692308 L8.45653846,31.1538462 C8.45653846,38.5246154 5.85346154,44.8488462 0.72,49.9511538 C0.414230769,50.2557692 0.303461538,50.7046154 0.432692308,51.1165385 C0.561923077,51.5273077 0.911538462,51.8330769 1.33730769,51.9069231 L12.2884615,53.7980769 C14.3538462,54.1546154 16.2288462,54.4396154 17.9930769,54.6726923 C19.7573077,54.9057692 23.3406533,55.5818829 28.2690128,55.5361547 C33.126995,55.4910795 36.8180769,54.9 38.5742308,54.6680769 C40.3303846,54.4361538 42.1961538,54.1523077 44.25,53.7969231 L55.2,51.9057692 C55.6257692,51.8330769 55.9742308,51.5273077 56.1046154,51.1153846 C56.235,50.7046154 56.1242308,50.2557692 55.8184615,49.9511538 Z M33.8411282,56.1669231 C32.6129882,58.545 30.6976071,60 28.648012,60 C26.5992254,60 24.6846529,58.5461538 23.4565128,56.1692308 C23.7774948,56.2165385 24.087966,56.2534615 24.3984372,56.2915385 C24.5463962,56.31 24.6983977,56.3319231 24.8447396,56.3492308 C24.9579322,56.3619231 25.0670823,56.37 25.1794664,56.3815385 C27.529022,56.6261538 29.6926183,56.6261538 32.0405568,56.3873077 C32.1755795,56.3734615 32.307368,56.3630769 32.4440077,56.3480769 C32.6202648,56.3284615 32.8029901,56.3019231 32.9816727,56.28 C33.2557606,56.2453846 33.5282314,56.2130769 33.8104045,56.1715385 C33.8201067,56.1692308 33.8306175,56.1680769 33.8411282,56.1669231 Z" id="Shape"></path>
        </g>
    </g>
</svg>