<?xml version="1.0" encoding="UTF-8"?>
<svg width="49px" height="60px" viewBox="0 0 49 60" version="1.1" xmlns="http://www.w3.org/2000/svg" xmlns:xlink="http://www.w3.org/1999/xlink">
    <!-- Generator: Sketch 51 (57462) - http://www.bohemiancoding.com/sketch -->
    <title>ico_profile</title>
    <desc>Created with Sketch.</desc>
    <defs></defs>
    <g id="Page-1" stroke="none" stroke-width="1" fill="none" fill-rule="evenodd">
        <g id="ico_profile" fill="#FFFFFF" fill-rule="nonzero">
            <path d="M24.7059565,31.7647059 C33.7036607,31.7642187 36.9409783,22.9285308 37.788658,15.6706129 C38.8326591,6.72929859 34.5218326,0 24.7059565,0 C14.8916701,0 10.5784591,6.72881138 11.6232551,15.6705155 C12.4717295,22.9283359 15.7080536,31.765388 24.7059565,31.7647059 Z" id="Shape"></path>
            <path d="M48.5257104,53.2180223 C48.4833541,52.0097816 48.2218027,47.435906 45.6515109,42.5198792 C42.2723801,36.0568397 36.228297,29.2239893 34.6804727,30.8823529 C31.9553161,33.8021292 28.4018576,35.3295546 24.2637154,35.3297481 C20.1267617,35.3297481 16.5736993,33.8023227 13.8488397,30.8823529 C13.4546846,31.0858409 8.30443697,34.7835293 5.03311597,39.8270606 C1.6033075,45.1149387 0.053830538,51.7866002 0.00370110917,53.2180223 C-0.0721572378,55.3841487 1.02254011,55.6877761 2.8773064,56.3417649 C5.19989884,57.160146 7.59775544,57.7676909 10.0116552,58.2657055 C14.6737745,59.2275791 19.4793909,59.9669087 24.2644086,60 C29.0494264,59.9668119 33.8550428,59.2275791 38.5171621,58.2657055 C40.9310618,57.7678844 43.3291165,57.1603395 45.6515109,56.3417649 C47.5069704,55.6879696 48.6015687,55.3843423 48.5257104,53.2180223 Z" id="Shape"></path>
        </g>
    </g>
</svg>